<svg width="72" height="24" viewBox="0 0 72 24" fill="none" xmlns="http://www.w3.org/2000/svg">
<path fill-rule="evenodd" clip-rule="evenodd" d="M8.92599 7.478C9.43933 7.534 9.84999 7.625 10.158 7.751C10.4707 7.877 10.697 8.04267 10.837 8.248C10.977 8.45333 11.047 8.71 11.047 9.018C11.047 9.44267 10.8743 9.79733 10.529 10.082C10.1837 10.3667 9.72166 10.5487 9.14299 10.628V11.076C9.14299 11.1273 9.12433 11.1717 9.08699 11.209C9.04966 11.2463 9.00533 11.265 8.95399 11.265H8.01599C7.96466 11.265 7.92033 11.2463 7.88299 11.209C7.84566 11.1717 7.82699 11.1273 7.82699 11.076V10.628H6.16101V9.305H7.59601H8.51299C8.95633 9.305 9.17799 9.23733 9.17799 9.102C9.17799 9.046 9.14766 8.99933 9.08699 8.962C9.03099 8.92 8.92833 8.885 8.77899 8.857C8.63433 8.82433 8.41966 8.79167 8.13499 8.759C7.49566 8.68433 7.00566 8.52567 6.66499 8.283C6.32433 8.03567 6.15399 7.688 6.15399 7.24C6.15399 6.84333 6.30333 6.50733 6.60199 6.232C6.90066 5.952 7.30899 5.77 7.82699 5.686V5.189C7.82699 5.13767 7.84566 5.09333 7.88299 5.056C7.92033 5.01867 7.96466 5 8.01599 5H8.95399C9.00533 5 9.04966 5.01867 9.08699 5.056C9.12433 5.09333 9.14299 5.13767 9.14299 5.189V5.686H10.696V6.995H9.19103H8.48499C8.17233 6.995 8.01599 7.06033 8.01599 7.191C8.01599 7.261 8.07666 7.317 8.19799 7.359C8.31932 7.39633 8.56199 7.436 8.92599 7.478ZM8 12H10C10.5523 12 11 12.4477 11 13C11 13.5523 10.5523 14 10 14H7.33333L7 15H10.9998L13.0354 12.9645C13.4259 12.5739 14.059 12.5739 14.4496 12.9645L14.5355 13.0504C14.9261 13.441 14.9261 14.0741 14.5355 14.4647L11 18.0002L10.9998 18H6H2V15L4.41421 12.5858C4.78929 12.2107 5.29799 12 5.82843 12H6H8Z" fill="#24D474"/>
<path fill-rule="evenodd" clip-rule="evenodd" d="M27.9612 6.60797C27.7446 5.52485 26.6909 4.82242 25.6078 5.03904C24.5247 5.25567 23.8222 6.30932 24.0389 7.39243L25.3958 14.1769C25.9567 16.9814 28.4191 19.0002 31.2792 19.0002H36C37.1046 19.0002 38 18.1048 38 17.0002C38 15.8956 37.1046 15.0002 36 15.0002H31.2792C30.3259 15.0002 29.505 14.3273 29.3181 13.3924L27.9612 6.60797ZM33.6624 10.3191L32.637 12H31.0147L32.8018 9.37429L31.2197 7.01955H32.8347L33.6624 8.41481L34.49 7.01955H36.105L34.5266 9.37429L36.3137 12H34.6914L33.6624 10.3191ZM40.1004 10.7769V12H36.7715V7.01955H38.1521V10.7769H40.1004Z" fill="#698CA5"/>
<path fill-rule="evenodd" clip-rule="evenodd" d="M53.5 4C52.9477 4 52.5 4.44772 52.5 5V10V11C52.5 12.4865 53.5811 13.7205 55 13.9585V18.5C55 19.3284 55.6716 20 56.5 20C57.3284 20 58 19.3284 58 18.5V13.9585C59.4189 13.7205 60.5 12.4865 60.5 11V10V5C60.5 4.44772 60.0523 4 59.5 4C58.9477 4 58.5 4.44772 58.5 5V10H57.5V5C57.5 4.44772 57.0523 4 56.5 4C55.9477 4 55.5 4.44772 55.5 5V10H54.5V5C54.5 4.44772 54.0523 4 53.5 4ZM63 8C63 5.79086 64.7909 4 67 4V14V18.5C67 19.3284 66.3284 20 65.5 20C64.6716 20 64 19.3284 64 18.5V17.1655C64 17.0554 64.0091 16.9454 64.0272 16.8367L64.5 14H63V8Z" fill="#698CA5"/>
</svg>
